<?xml version="1.0" encoding="UTF-8" standalone="no"?>
<svg
   version="1.0"
   width="225.000000pt"
   height="225.000000pt"
   viewBox="0 0 225.000000 225.000000"
   preserveAspectRatio="xMidYMid meet"
   id="svg4"
   sodipodi:docname="images.svg"
   inkscape:version="1.3 (0e150ed6c4, 2023-07-21)"
   inkscape:export-filename="images.png"
   inkscape:export-xdpi="163.84"
   inkscape:export-ydpi="163.84"
   xmlns:inkscape="http://www.inkscape.org/namespaces/inkscape"
   xmlns:sodipodi="http://sodipodi.sourceforge.net/DTD/sodipodi-0.dtd"
   xmlns:xlink="http://www.w3.org/1999/xlink"
   xmlns="http://www.w3.org/2000/svg"
   xmlns:svg="http://www.w3.org/2000/svg">
  <defs
     id="defs4">
    <color-profile
       name="Agfa-:-Swop-Standard"
       xlink:href="../../../Windows/system32/spool/drivers/color/RSWOP.icm"
       id="color-profile1" />
  </defs>
  <sodipodi:namedview
     id="namedview4"
     pagecolor="#ffffff"
     bordercolor="#000000"
     borderopacity="0.25"
     inkscape:showpageshadow="2"
     inkscape:pageopacity="0.0"
     inkscape:pagecheckerboard="false"
     inkscape:deskcolor="#d1d1d1"
     inkscape:document-units="pt"
     inkscape:zoom="6.1033333"
     inkscape:cx="150.08192"
     inkscape:cy="150"
     inkscape:window-width="3840"
     inkscape:window-height="2066"
     inkscape:window-x="2293"
     inkscape:window-y="-11"
     inkscape:window-maximized="1"
     inkscape:current-layer="svg4" />
  <metadata
     id="metadata1">&#10;Created by potrace 1.16, written by Peter Selinger 2001-2019&#10;</metadata>
  <rect
     style="fill:#333333;fill-opacity:1;stroke-width:3.73181"
     id="rect4"
     width="225"
     height="225"
     x="3.5527137e-15"
     y="1.7763568e-15" />
  <path
     d="m 59,8.6 c -7.4,2 -12.8,4.7 -17.8,9 -11.2,9.5 -13,20.9 -7.7,48.8 0.8,4.3 1.8,11.6 2.1,16.1 0.6,7.4 0.4,8.8 -1.8,13.7 -2.9,6.2 -6.4,8.5 -14.8,9.5 l -5,0.6 v 7.7 7.7 l 5.5,0.6 c 7.1,0.7 11.8,3.7 14.4,9.1 2.8,5.6 2.7,10.8 -0.5,29.6 -3.5,20.8 -3.2,34.3 0.8,41.1 5.3,9 14.5,14.8 27.4,17.5 6.4,1.3 7.8,1.4 8.5,0.2 1.4,-2.1 1.1,-13.8 -0.3,-14.2 -0.7,-0.2 -3.9,-0.9 -7.1,-1.6 -3.8,-0.8 -7,-2.2 -9,-4 -2.8,-2.5 -3.2,-3.4 -3.5,-9.6 -0.2,-3.8 0.3,-11.8 1.2,-17.7 0.9,-5.9 1.6,-15.1 1.6,-20.5 0,-14.8 -2.7,-22.8 -11.4,-33.4 l -4.5,-5.5 2.6,-2.4 c 4,-3.7 9,-12 11.2,-18.7 2.3,-6.7 2.7,-21.3 1,-32.7 C 51.4,56.2 50.8,48.8 50.4,43 49.8,33.1 49.9,32.3 52.1,29.6 55,25.9 61.4,23 66.8,23 H 71 V 15 7 L 67.8,7.1 C 66,7.1 62,7.8 59,8.6 Z"
     id="path1"
     style="fill:#b1d3d3;stroke:none;stroke-width:0.1;fill-opacity:1" />
  <path
     d="m 153.8,14.5 c -0.3,7.1 -0.2,7.5 1.8,7.5 6.3,0 15.4,5.4 17.8,10.5 1.4,2.8 1.3,4.5 -0.5,17.1 -2.6,17.9 -2.8,34 -0.6,41.4 1.7,5.6 5.9,13 11.1,19.5 l 2.9,3.6 -3.5,3.7 c -5,5.2 -8.4,11 -10.3,17.7 -2.1,7.2 -2.2,24.3 0,38.2 0.8,5.7 1.5,12.8 1.5,15.9 0,5 -0.3,5.9 -3.3,8.9 -2.2,2.2 -5.3,3.9 -9.3,5 -3.2,0.9 -6.3,1.8 -6.9,1.9 -0.6,0.2 -0.9,3.4 -0.7,7.9 l 0.4,7.6 3.1,-0.5 c 14.7,-2.7 26.4,-9.5 32.2,-18.8 2.9,-4.8 3,-5.2 3,-17.5 -0.1,-8.6 -0.7,-15.3 -2,-21.1 -2.7,-12 -2.8,-30.4 -0.1,-34.3 2.8,-4.1 8.6,-6.7 15.1,-6.7 h 5.5 v -7.8 -7.8 l -7.1,-1.1 c -6.3,-1 -7.7,-1.6 -11,-5 -6.4,-6.3 -6.5,-10.1 -1.5,-41.8 2.4,-15.1 2.1,-23.8 -1,-30.5 C 185.8,18 177.7,11.7 165.3,8.5 162.2,7.7 158.4,7 156.9,7 c -2.7,0 -2.7,0.1 -3.1,7.5 z"
     id="path2"
     style="fill:#b1d3d3;stroke:none;stroke-width:0.1;fill-opacity:1" />
  <path
     d="m 128.6,29.5 c -6.9,2.4 -11.1,7.8 -19.7,25 C 104.5,63.3 98.8,76.1 96.2,82.9 93.6,89.8 91,95.5 90.5,95.6 89.9,95.8 87.5,92.9 85,89.2 79.5,81.1 75.3,78 69.4,78 64.6,78 60,79.4 60,80.9 c 0,0.5 2.5,3.8 5.5,7.3 5.7,6.5 17.6,23.9 23.4,34 1.8,3.2 3.6,5.8 3.9,5.8 0.4,0 4.3,-9.6 8.6,-21.3 15.6,-41.8 20,-50 36.9,-68.9 3.8,-4.2 6.6,-8.2 6.2,-8.7 -0.9,-1.5 -11.3,-1.3 -15.9,0.4 z"
     id="path3"
     style="fill:#4fcc4d;stroke:none;stroke-width:0.1;fill-opacity:1" />
  <path
     d="m 155.1,103.9 c -4.1,0.6 -5.1,1.4 -14.5,12 -5.6,6.3 -10.6,11.5 -11.1,11.4 -0.6,0 -3.4,-4.6 -6.3,-10.2 -5.7,-10.7 -5.9,-10.9 -12.4,-9 -3.3,0.8 -3.8,1.4 -3.8,3.9 0,1.5 2.3,9.4 5.1,17.5 l 5,14.7 -4.1,5.1 c -9.6,12.1 -22.4,30.3 -24.6,35.1 -3,6.4 -3.1,12.4 -0.3,16 1.6,2.1 2.6,2.5 4.7,2 3.6,-0.9 5.7,-2.8 8.8,-8.3 8.1,-13.9 21.8,-34.1 23.3,-34.1 0.4,0 3.8,4.7 7.5,10.4 10.2,15.7 11.3,16.2 16,8.2 l 2.7,-4.7 -5.1,-11.2 c -2.9,-6.1 -6,-13.3 -7,-15.8 l -1.9,-4.6 9.7,-12.9 c 5.3,-7.1 11.2,-14.8 13,-17.1 2.2,-2.6 3.2,-4.9 3,-6.4 -0.3,-2.6 -1.3,-2.9 -7.7,-2 z"
     id="path4"
     style="fill:#e94444;stroke:none;stroke-width:0.1;fill-opacity:1" />
  <text
     xml:space="preserve"
     style="font-weight:600;font-size:144px;font-family:Montserrat;-inkscape-font-specification:'Montserrat Semi-Bold';fill:#000000;stroke-width:0.3"
     x="201.52922"
     y="172.89732"
     id="text4"><tspan
       sodipodi:role="line"
       id="tspan4"
       style="font-style:normal;font-variant:normal;font-weight:normal;font-stretch:normal;font-size:144px;font-family:'Cascadia Code PL';-inkscape-font-specification:'Cascadia Code PL';stroke-width:0.3"
       x="201.52922"
       y="172.89732" /></text>
</svg>
